<?xml version="1.0" encoding="utf-8"?>
<svg version="1.1" id="Layer_1" xmlns="http://www.w3.org/2000/svg" xmlns:xlink="http://www.w3.org/1999/xlink"
     x="0px" y="0px" viewBox="290.5 280 577.05 280">

    <g id="icon">
        <path style="fill: #dde131; stroke: #dde131;" id="inner" d="M697.791,333.25c0,0-16.712,3.354-9.237,28.467
		c7.474,25.114,22.337,25.132,27.506,19.733c7.742-8.088,3.587-26.609,27.207-31.393c23.618-4.783,41.342,11.36,54.114,17.939
		c13.223,6.812,32.289,4.783,29.597-20.33c-2.69-25.114-38.866-47.537-57.701-26.31c-18.836,21.227-34.435,31.236-53.217,18.835
		C712.431,337.795,704.368,331.258,697.791,333.25"/>
        <path id="outer" d="M766.826,286.914c-13.106-1.991-40.646,0-50.17,18.298
		c-6.333,12.169,4.68,22.183,17.235,18.671c19.134-5.353,17.447-27.342,47.942-23.156s43.649,20.331,50.824,33.186
		c7.177,12.856,8.622,42.339-12.008,50.412c-20.629,8.072-33.435-6.463-52.271-12.143c-18.835-5.681-30.495,3.886-35.279,13.753
		c-4.784,9.866-1.674,33.459,23.917,43.052c20.3,7.609,33.156-3.453,41.827-14.515c8.669-11.062,18.987-22.33,35.907-15.98
		c12.694,4.764,22.483-0.256,22.488-15.522c0.008-19.908-12.035-25.393-14.923-37.161c-2.591-10.564,0.644-20.345-7.859-30.305
		c-7.742-9.069-20.281-8.775-26.767-11.281C790.384,297.532,780.4,288.976,766.826,286.914"/>
        <path style="fill: #dde131; stroke: #dde131;"  id="inner" d="M810.854,425.99c0,0,5.183-10.166,21.128-15.147
		c15.944-4.983,14.02,6.711,8.769,13.952c-7.215,9.95-23.519,16.543-29.896,13.354C804.475,434.959,810.854,425.99,810.854,425.99"
        />
    </g>
    <g id="FTP">
        <path id="F" d="M327.989,425.692v36.865c0,5.46-4.467,9.928-9.927,9.928H306.02
		c-4.495,0-8.174-3.679-8.174-8.173c-0.008-25.933-0.134-47.35,0.047-73.28c0.101-14.229,3.335-27.666,12.296-39.153
		c8.794-11.273,20.764-18.069,34.619-19.17c16.615-1.321,31.889-1.377,54.494-1.91c4.355-0.102,7.951,3.4,7.951,7.757v14.452
		c0,4.589-3.759,8.345-8.348,8.345c-14.437,0.002-18.375-0.057-32.85,0.026c-7.352,0.042-21.608,0.6-27.733,4.976
		c-4.878,3.484-7.428,7.89-8.712,14.411c-1.045,5.304,1.266,5.718,4.239,5.718h64.782c4.724,0,8.589,3.865,8.589,8.59v12.382
		c0,4.988-4.081,9.069-9.069,9.069h-60.995C325.626,415.188,328.21,426.42,327.989,425.692"/>
        <path id="T" d="M488.202,472.486h-12.375c-5.164,0-9.351-4.188-9.351-9.352v-92.289
		c0-5.164-4.186-9.35-9.35-9.35h-26.577c-5.165,0-9.352-4.187-9.352-9.351v-11.203c0-5.164,4.187-9.351,9.352-9.351h102.157
		c5.164,0,9.35,4.187,9.35,9.351v10.923c0,5.164-4.186,9.35-9.35,9.35h-26.58c-5.164,0-9.351,4.187-9.351,9.352v93.346
		C496.099,470.208,491.809,472.485,488.202,472.486"/>
        <path id="P" d="M574.482,472.524h-15.596c-3.873,0-7.044-3.17-7.047-7.041
		c-0.001-1.351-0.001,1.045,0-0.527c0.017-12.637-0.11-25.279,0.082-37.912c0.362-23.637,15.514-39.308,39.17-40.277
		c11.04-0.453,22.111-0.175,33.167-0.277c6.73-0.061,11.17-2.93,13.005-8.265c2.902-8.441-3.062-16.827-12.142-16.851
		c-23.037-0.059-41.823-0.02-64.861-0.02c-4.454,0-8.1-3.646-8.1-8.101v-15.199c0-3.723,3.046-6.774,6.767-6.78
		c23.827,0.015,43.403-0.083,67.229,0.195c4.915,0.059,9.982,0.99,14.688,2.453c16.554,5.148,26.875,18.909,27.081,36.251
		c0.074,5.979-0.228,12.239-1.906,17.911c-4.828,16.321-16.735,25.498-33.134,27.508c-12.335,1.513-24.945,0.842-37.436,1.024
		c-8.551,0.124-13.442,4.767-13.504,13.392c-0.091,12.637-0.024,22.44-0.024,35.077C581.92,469.175,578.572,472.524,574.482,472.524
		"/>
    </g>
    <g id="TECHNOLOGY">
        <path d="M320.898,513.821v4.855h-10.169v27.209h-5.405v-27.209H295.2v-4.855H320.898z"/>
        <path d="M366.703,513.821v4.855h-17.498v8.703h15.666v4.81h-15.666v8.841h18.048v4.855h-23.453v-32.064H366.703z"/>
        <path d="M406.46,518.493c-6.413,0-11.452,4.947-11.452,11.269s5.039,11.314,11.452,11.314c3.207,0,6.505-1.466,8.933-3.802
		l3.207,3.572c-3.252,3.207-7.879,5.269-12.414,5.269c-9.39,0-16.673-7.101-16.673-16.308c0-9.115,7.375-16.124,16.857-16.124
		c4.535,0,9.07,1.878,12.185,4.947l-3.161,3.939C413.056,520.05,409.712,518.493,406.46,518.493z"/>
        <path
            d="M447.821,513.821v13.925h16.994v-13.925h5.405v32.064h-5.405v-13.284h-16.994v13.284h-5.405v-32.064H447.821z"/>
        <path
            d="M502.282,513.821l17.178,23.04v-23.04h5.313v32.064h-5.313l-17.086-22.995v22.995h-5.405v-32.064H502.282z"/>
        <path d="M582.898,529.853c0,9.161-7.42,16.262-16.994,16.262s-16.994-7.101-16.994-16.262c0-9.207,7.42-16.17,16.994-16.17
		S582.898,520.692,582.898,529.853z M554.407,529.853c0,6.367,5.268,11.405,11.543,11.405s11.406-5.038,11.406-11.405
		s-5.13-11.314-11.406-11.314C559.629,518.539,554.407,523.486,554.407,529.853z"/>
        <path d="M612.35,513.821v27.163h13.88v4.901h-19.285v-32.064H612.35z"/>
        <path d="M681.058,529.853c0,9.161-7.421,16.262-16.994,16.262s-16.994-7.101-16.994-16.262c0-9.207,7.421-16.17,16.994-16.17
		S681.058,520.692,681.058,529.853z M652.566,529.853c0,6.367,5.268,11.405,11.543,11.405s11.406-5.038,11.406-11.405
		s-5.131-11.314-11.406-11.314C657.788,518.539,652.566,523.486,652.566,529.853z"/>
        <path d="M725.762,530.127h4.719v11.818c-3.253,2.474-8.062,4.169-12.46,4.169c-9.481,0-16.856-7.101-16.856-16.262
		s7.467-16.17,17.178-16.17c4.58,0,9.161,1.74,12.321,4.489l-3.068,3.985c-2.474-2.291-5.909-3.665-9.253-3.665
		c-6.551,0-11.681,4.993-11.681,11.36c0,6.413,5.176,11.405,11.727,11.405c2.382,0,5.084-0.824,7.374-2.198V530.127z"/>
        <path d="M761.809,513.821v32.064h-5.405v-32.064H761.809z"/>
        <path d="M811.461,513.821v4.855h-17.498v8.703h15.666v4.81h-15.666v8.841h18.048v4.855h-23.453v-32.064H811.461z"/>
        <path d="M847.051,518.676c-3.161,0-5.223,1.19-5.223,3.344c0,7.009,17.315,3.252,17.27,14.796c0,5.726-5.039,9.253-12.093,9.253
		c-5.039,0-9.803-2.062-13.101-5.085l2.336-4.672c3.298,3.022,7.421,4.672,10.856,4.672c3.756,0,6-1.42,6-3.894
		c0-7.146-17.314-3.161-17.314-14.566c0-5.497,4.718-8.933,11.681-8.933c4.168,0,8.245,1.328,11.223,3.298l-2.245,4.765
		C852.96,519.546,849.479,518.676,847.051,518.676z"/>
    </g>
</svg>
