<svg style="fill:#dddddd;stroke:#dddddd" version="1.1" xmlns="http://www.w3.org/2000/svg"
     xmlns:xlink="http://www.w3.org/1999/xlink" x="0px" y="0px" viewBox="290.5 284 577.05 195">
    <g id="Layer1" name="Layer 1" opacity="1">
        <g id="Shape1">
            <path id="shapePath1"
                  d="M697.791,372.264 C697.791,372.264 681.079,375.618 688.554,400.731 C696.028,425.845 710.891,425.863 716.06,420.464 C723.802,412.376 719.647,393.855 743.267,389.071 C766.885,384.288 784.609,400.431 797.381,407.01 C810.604,413.822 829.67,411.793 826.978,386.68 C824.288,361.566 788.112,339.143 769.277,360.37 C750.441,381.597 734.842,391.606 716.06,379.205 C712.431,376.809 704.368,370.272 697.791,372.264 Z"/>
        </g>
        <g id="Shape2">
            <path id="shapePath2"
                  d="M766.826,325.928 C753.72,323.937 726.18,325.928 716.656,344.226 C710.323,356.395 721.336,366.409 733.891,362.897 C753.025,357.544 751.338,335.555 781.833,339.741 C812.328,343.927 825.482,360.072 832.657,372.927 C839.834,385.783 841.279,415.266 820.649,423.339 C800.02,431.411 787.214,416.876 768.378,411.196 C749.543,405.515 737.883,415.082 733.099,424.949 C728.315,434.815 731.425,458.408 757.016,468.001 C777.316,475.61 790.172,464.548 798.843,453.486 C807.512,442.424 817.83,431.156 834.75,437.506 C847.444,442.27 857.233,437.25 857.238,421.984 C857.246,402.076 845.203,396.591 842.315,384.823 C839.724,374.259 842.959,364.478 834.456,354.518 C826.714,345.449 814.175,345.743 807.689,343.237 C790.384,336.546 780.4,327.99 766.826,325.928 Z"/>
        </g>
        <g id="Shape3">
            <path id="shapePath3"
                  d="M810.854,465.004 C810.854,465.004 816.037,454.838 831.982,449.857 C847.926,444.874 846.002,456.568 840.751,463.809 C833.536,473.759 817.232,480.352 810.855,477.163 C804.475,473.973 810.854,465.004 810.854,465.004 Z"/>
        </g>
        <g id="Shape4">
            <path id="shapePath4"
                  d="M327.989,425.692 L327.989,462.557 C327.989,468.017 323.522,472.485 318.062,472.485 L306.02,472.485 C301.525,472.485 297.846,468.806 297.846,464.312 C297.838,438.379 297.712,416.962 297.893,391.032 C297.994,376.803 301.228,363.366 310.189,351.879 C318.983,340.606 330.953,333.81 344.808,332.709 C361.423,331.388 376.697,331.332 399.302,330.799 C403.657,330.697 407.253,334.199 407.253,338.556 L407.253,353.008 C407.253,357.597 403.494,361.353 398.905,361.353 C384.468,361.355 380.53,361.296 366.055,361.379 C358.703,361.421 344.447,361.979 338.322,366.355 C333.444,369.839 330.894,374.245 329.61,380.766 C328.565,386.07 330.876,386.484 333.849,386.484 L398.631,386.484 C403.355,386.484 407.22,390.349 407.22,395.074 L407.22,407.456 C407.22,412.444 403.139,416.525 398.151,416.525 L337.156,416.525 C325.626,415.188 328.21,426.42 327.989,425.692 Z"/>
        </g>
        <g id="Shape5">
            <path id="shapePath5"
                  d="M488.202,472.486 L475.827,472.486 C470.663,472.486 466.476,468.298 466.476,463.134 L466.476,370.845 C466.476,365.681 462.29,361.495 457.126,361.495 L430.549,361.495 C425.384,361.495 421.197,357.308 421.197,352.144 L421.197,340.941 C421.197,335.777 425.384,331.59 430.549,331.59 L532.706,331.59 C537.87,331.59 542.056,335.777 542.056,340.941 L542.056,351.864 C542.056,357.028 537.87,361.214 532.706,361.214 L506.126,361.214 C500.962,361.214 496.775,365.401 496.775,370.566 L496.775,463.912 C496.099,470.208 491.809,472.485 488.202,472.486 Z"/>
        </g>
        <g id="Shape6">
            <path id="shapePath6"
                  d="M574.482,472.524 L558.886,472.524 C555.013,472.524 551.842,469.354 551.839,465.483 C551.838,464.132 551.838,466.528 551.839,464.956 C551.856,452.319 551.729,439.677 551.921,427.044 C552.283,403.407 567.435,387.736 591.091,386.767 C602.131,386.314 613.202,386.592 624.258,386.49 C630.988,386.429 635.428,383.56 637.263,378.225 C640.165,369.784 634.201,361.398 625.121,361.374 C602.084,361.315 583.298,361.354 560.26,361.354 C555.806,361.354 552.16,357.708 552.16,353.253 L552.16,338.054 C552.16,334.331 555.206,331.28 558.927,331.274 C582.754,331.289 602.33,331.191 626.156,331.469 C631.071,331.528 636.138,332.459 640.844,333.922 C657.398,339.07 667.719,352.831 667.925,370.173 C667.999,376.152 667.697,382.412 666.019,388.084 C661.191,404.405 649.284,413.582 632.885,415.592 C620.55,417.105 607.94,416.434 595.449,416.616 C586.898,416.74 582.007,421.383 581.945,430.008 C581.854,442.645 581.921,452.448 581.921,465.085 C581.92,469.175 578.572,472.524 574.482,472.524 Z"/>
        </g>
    </g>
</svg>
