<?xml version="1.0" encoding="UTF-8" standalone="no"?><!DOCTYPE svg PUBLIC "-//W3C//DTD SVG 1.1//EN" "http://www.w3.org/Graphics/SVG/1.1/DTD/svg11.dtd"><svg width="100%" height="100%" viewBox="0 0 2405 813" version="1.1" xmlns="http://www.w3.org/2000/svg" xmlns:xlink="http://www.w3.org/1999/xlink" xml:space="preserve" xmlns:serif="http://www.serif.com/" style="fill-rule:evenodd;clip-rule:evenodd;"><g id="icon"><path id="inner" d="M1697.05,205.208c0,0 -69.633,13.975 -38.488,118.613c31.142,104.641 93.071,104.716 114.609,82.221c32.258,-33.7 14.946,-110.871 113.362,-130.805c98.409,-19.929 172.259,47.334 225.475,74.746c55.096,28.384 134.538,19.93 123.321,-84.708c-11.208,-104.642 -161.942,-198.071 -240.421,-109.625c-78.483,88.446 -143.479,130.15 -221.737,78.479c-15.121,-9.983 -48.717,-37.221 -76.121,-28.921" style="fill:#d2de26;fill-rule:nonzero;stroke:#d2de26;stroke-width:4.17px;"/><path id="outer" d="M1984.69,12.142c-54.609,-8.296 -169.359,0 -209.042,76.241c-26.387,50.704 19.5,92.429 71.813,77.796c79.725,-22.304 72.695,-113.925 199.758,-96.483c127.062,17.441 181.871,84.712 211.766,138.275c29.905,53.566 35.926,176.412 -50.033,210.05c-85.954,33.633 -139.312,-26.929 -217.796,-50.596c-78.479,-23.671 -127.062,16.192 -146.996,57.304c-19.933,41.108 -6.974,139.413 99.655,179.383c84.583,31.705 138.15,-14.387 174.279,-60.479c36.121,-46.091 79.112,-93.041 149.612,-66.583c52.892,19.85 93.68,-1.067 93.7,-64.675c0.034,-82.95 -50.145,-105.804 -62.179,-154.838c-10.796,-44.016 2.684,-84.77 -32.746,-126.27c-32.258,-37.788 -84.504,-36.563 -111.529,-47.005c-72.104,-27.879 -113.704,-63.529 -170.262,-72.12" style="fill:#d2de26;fill-rule:nonzero;stroke:#d2de26;stroke-width:4.17px;"/><path id="inner1" serif:id="inner" d="M2168.14,591.625c0,0 21.596,-42.358 88.033,-63.112c66.433,-20.763 58.417,27.962 36.538,58.133c-30.063,41.458 -97.996,68.929 -124.567,55.641c-26.583,-13.291 -0.004,-50.662 -0.004,-50.662" style="fill:#d2de26;fill-rule:nonzero;stroke:#d2de26;stroke-width:4.17px;"/></g><g id="FTP"><path id="F" d="M156.204,590.383l0,153.604c0,22.75 -18.612,41.367 -41.362,41.367l-50.175,0c-18.73,0 -34.059,-15.329 -34.059,-34.054c-0.033,-108.054 -0.558,-197.292 0.196,-305.333c0.421,-59.288 13.896,-115.275 51.234,-163.138c36.641,-46.971 86.516,-75.287 144.245,-79.875c69.23,-5.504 132.871,-5.737 227.059,-7.958c18.146,-0.425 33.129,14.166 33.129,32.321l0,60.216c0,19.121 -15.663,34.771 -34.783,34.771c-60.155,0.008 -76.563,-0.237 -136.875,0.109c-30.634,0.174 -90.034,2.5 -115.555,20.733c-20.325,14.516 -30.95,32.875 -36.3,60.046c-4.354,22.1 5.275,23.825 17.663,23.825l269.925,0c19.683,0 35.787,16.104 35.787,35.791l0,51.592c0,20.783 -17.004,37.788 -37.787,37.788l-254.146,0c-48.042,-5.571 -37.275,41.229 -38.196,38.195" style="fill:#40403f;fill-rule:nonzero;stroke:#40403f;stroke-width:4.17px;"/><path id="T" d="M823.758,785.358l-51.562,0c-21.517,0 -38.963,-17.45 -38.963,-38.966l0,-384.538c0,-21.516 -17.441,-38.958 -38.958,-38.958l-110.738,0c-21.52,0 -38.966,-17.446 -38.966,-38.963l0,-46.679c0,-21.516 17.446,-38.962 38.966,-38.962l425.655,0c21.516,0 38.958,17.446 38.958,38.962l0,45.513c0,21.516 -17.442,38.958 -38.958,38.958l-110.75,0c-21.517,0 -38.963,17.446 -38.963,38.967l0,388.941c-2.817,26.234 -20.692,35.721 -35.721,35.725" style="fill:#40403f;fill-rule:nonzero;stroke:#40403f;stroke-width:4.17px;"/><path id="P" d="M1183.26,785.517l-64.983,0c-16.138,0 -29.35,-13.209 -29.363,-29.338c-0.004,-5.629 -0.004,4.354 0,-2.196c0.071,-52.654 -0.458,-105.329 0.342,-157.966c1.508,-98.488 64.642,-163.784 163.208,-167.821c46,-1.888 92.13,-0.729 138.196,-1.154c28.042,-0.254 46.542,-12.209 54.188,-34.438c12.091,-35.171 -12.759,-70.112 -50.592,-70.212c-95.987,-0.246 -174.262,-0.084 -270.254,-0.084c-18.558,0 -33.75,-15.191 -33.75,-33.754l0,-63.329c0,-15.512 12.692,-28.225 28.196,-28.25c99.279,0.063 180.846,-0.346 280.121,0.813c20.479,0.245 41.591,4.125 61.2,10.22c68.975,21.45 111.979,78.788 112.837,151.046c0.308,24.913 -0.95,50.996 -7.941,74.629c-20.117,68.005 -69.73,106.242 -138.059,114.617c-51.396,6.304 -103.937,3.508 -155.983,4.267c-35.629,0.516 -56.009,19.862 -56.267,55.8c-0.379,52.654 -0.1,93.5 -0.1,146.154c-0.004,17.042 -13.954,30.996 -30.996,30.996" style="fill:#40403f;fill-rule:nonzero;stroke:#40403f;stroke-width:4.17px;"/></g></svg>