<?xml version="1.0" encoding="UTF-8" standalone="no"?><!DOCTYPE svg PUBLIC "-//W3C//DTD SVG 1.1//EN" "http://www.w3.org/Graphics/SVG/1.1/DTD/svg11.dtd"><svg width="100%" height="100%" viewBox="0 0 755 655" version="1.1" xmlns="http://www.w3.org/2000/svg" xmlns:xlink="http://www.w3.org/1999/xlink" xml:space="preserve" xmlns:serif="http://www.serif.com/" style="fill-rule:evenodd;clip-rule:evenodd;"><path id="inner" d="M68.575,205.208c0,0 -69.633,13.975 -38.488,118.613c31.142,104.641 93.071,104.716 114.609,82.221c32.258,-33.7 14.946,-110.871 113.362,-130.805c98.409,-19.929 172.259,47.334 225.475,74.746c55.096,28.384 134.538,19.93 123.321,-84.708c-11.208,-104.642 -161.942,-198.071 -240.421,-109.625c-78.483,88.446 -143.479,130.15 -221.737,78.479c-15.121,-9.983 -48.717,-37.221 -76.121,-28.921" style="fill:#d2de26;fill-rule:nonzero;stroke:#d2de26;stroke-width:4.17px;"/><path id="outer" d="M356.215,12.142c-54.609,-8.296 -169.359,0 -209.042,76.241c-26.387,50.704 19.5,92.429 71.813,77.796c79.725,-22.304 72.695,-113.925 199.758,-96.483c127.062,17.441 181.871,84.712 211.766,138.275c29.905,53.566 35.926,176.412 -50.033,210.05c-85.954,33.633 -139.312,-26.929 -217.796,-50.596c-78.479,-23.671 -127.062,16.192 -146.996,57.304c-19.933,41.108 -6.974,139.413 99.655,179.383c84.583,31.705 138.15,-14.387 174.279,-60.479c36.121,-46.091 79.112,-93.041 149.612,-66.583c52.892,19.85 93.68,-1.067 93.7,-64.675c0.034,-82.95 -50.145,-105.804 -62.179,-154.838c-10.796,-44.016 2.684,-84.77 -32.746,-126.27c-32.258,-37.788 -84.504,-36.563 -111.529,-47.005c-72.104,-27.879 -113.704,-63.529 -170.262,-72.12" style="fill:#d2de26;fill-rule:nonzero;stroke:#d2de26;stroke-width:4.17px;"/><path id="inner1" serif:id="inner" d="M539.665,591.625c0,0 21.596,-42.358 88.033,-63.112c66.433,-20.763 58.417,27.962 36.538,58.133c-30.063,41.458 -97.996,68.929 -124.567,55.641c-26.583,-13.291 -0.004,-50.662 -0.004,-50.662" style="fill:#d2de26;fill-rule:nonzero;stroke:#d2de26;stroke-width:4.17px;"/></svg>